<svg xmlns="http://www.w3.org/2000/svg" width="21.925" height="20.395" viewBox="0 0 21.925 20.395">
    <g id="messages-bubble-typing-alternate-1" transform="translate(-0.038 -0.801)" opacity="0.7">
        <path id="Shape" d="M1.013,20.118a.918.918,0,0,1-.162-1.05l1.94-3.874A8.228,8.228,0,0,1,0,9.113C0,4.088,4.918,0,10.962,0S21.925,4.089,21.925,9.113s-4.918,9.113-10.963,9.113a13.021,13.021,0,0,1-3.444-.458l-5.46,2.542a.917.917,0,0,1-1.045-.192Z" transform="translate(0.038 0.801)" fill="#222"/>
        <circle id="Oval" cx="1.375" cy="1.375" r="1.375" transform="translate(5.004 8.593)" fill="#222"/>
        <circle id="Oval-2" data-name="Oval" cx="1.375" cy="1.375" r="1.375" transform="translate(9.625 8.593)" fill="#222"/>
        <circle id="Oval-3" data-name="Oval" cx="1.375" cy="1.375" r="1.375" transform="translate(14.208 8.593)" fill="#222"/>
    </g>
</svg>
