<svg xmlns="http://www.w3.org/2000/svg" xmlns:xlink="http://www.w3.org/1999/xlink" width="16.564" height="18.656" viewBox="0 0 16.564 18.656">
    <defs>
        <clipPath id="clip-path">
            <path id="path-1" d="M15.087,8.889H12.732V1.481A1.486,1.486,0,0,0,11.25,0H5.324A1.486,1.486,0,0,0,3.843,1.481V8.889H1.487A1.486,1.486,0,0,0,.436,11.422l6.8,6.8a1.475,1.475,0,0,0,2.089,0l6.8-6.8A1.482,1.482,0,0,0,15.087,8.889Z" transform="translate(0.75 0.741)" fill="#222"/>
        </clipPath>
    </defs>
    <g id="get-app-24px" transform="translate(-0.75 -0.741)" opacity="0.7">
        <path id="path-1-2" data-name="path-1" d="M15.087,8.889H12.732V1.481A1.486,1.486,0,0,0,11.25,0H5.324A1.486,1.486,0,0,0,3.843,1.481V8.889H1.487A1.486,1.486,0,0,0,.436,11.422l6.8,6.8a1.475,1.475,0,0,0,2.089,0l6.8-6.8A1.482,1.482,0,0,0,15.087,8.889Z" transform="translate(0.75 0.741)" fill="#222"/>
    </g>
</svg>
